<svg width="608" height="192" viewBox="0 0 608 192" fill="none" xmlns="http://www.w3.org/2000/svg">
<rect width="608" height="192" rx="32" fill="#FDFDFC"/>
<rect x="32" y="32" width="128" height="128" rx="16" fill="#5683D2"/>
<mask id="mask0_3154_48784" style="mask-type:alpha" maskUnits="userSpaceOnUse" x="71" y="71" width="50" height="50">
<rect x="71.1113" y="71.1112" width="49.7778" height="49.7776" fill="#D9D9D9"/>
</mask>
<g mask="url(#mask0_3154_48784)">
<path d="M93.3507 103.466L105.691 91.1776L103.047 88.5331L93.3507 98.1775L88.9432 93.822L86.2988 96.4664L93.3507 103.466ZM95.9951 115.911C93.2642 115.911 90.6889 115.392 88.2692 114.355C85.8494 113.318 83.7321 111.892 81.9173 110.077C80.1025 108.263 78.6766 106.145 77.6395 103.726C76.6025 101.306 76.084 98.7306 76.084 95.9998C76.084 93.2344 76.6025 90.6504 77.6395 88.248C78.6766 85.8455 80.1025 83.7369 81.9173 81.9221C83.7321 80.1072 85.8494 78.6813 88.2692 77.6443C90.6889 76.6073 93.2642 76.0887 95.9951 76.0887C98.7605 76.0887 101.344 76.6073 103.747 77.6443C106.149 78.6813 108.258 80.1072 110.073 81.9221C111.888 83.7369 113.314 85.8455 114.351 88.248C115.388 90.6504 115.906 93.2344 115.906 95.9998C115.906 98.7306 115.388 101.306 114.351 103.726C113.314 106.145 111.888 108.263 110.073 110.077C108.258 111.892 106.149 113.318 103.747 114.355C101.344 115.392 98.7605 115.911 95.9951 115.911Z" fill="#FDFDFC"/>
</g>
<path d="M195.116 84V54.726H205.612C212.295 54.726 215.534 58.457 215.534 63.049C215.534 67.231 212.705 69.896 209.425 70.675C212.254 71.413 213.115 73.627 214.222 77.317C215.042 80.023 215.657 81.663 216.764 83.59V84H212.623C211.639 81.991 210.901 79.285 210.04 76.989C209.015 74.242 207.826 72.028 204.3 72.028H199.011V84H195.116ZM199.011 68.748H205.448C209.589 68.748 211.598 66.493 211.598 63.049C211.598 60.425 210.163 58.006 205.202 58.006H199.011V68.748ZM222.864 74.939C223.028 79.326 226.021 81.417 230.285 81.417C233.729 81.417 236.681 79.818 236.681 76.251C236.681 72.643 233.647 72.028 229.957 70.921C225.119 69.486 220.199 68.051 220.076 62.516C219.953 56.858 224.627 54.029 229.916 54.029C235.779 54.029 239.633 56.981 240.084 62.844H236.148C235.615 59.154 233.77 57.309 229.916 57.309C226.677 57.309 223.971 58.662 223.971 62.229C223.971 65.222 226.841 66.37 230.695 67.477C235.574 68.871 240.576 69.937 240.576 76.128C240.576 82.114 235.533 84.697 230.285 84.697C223.889 84.697 219.051 81.622 218.969 74.939H222.864ZM241.459 54.726H245.723L254.333 80.023H254.497L263.189 54.726H267.453L256.875 83.959L251.955 84L241.459 54.726ZM279.356 69.076C283.62 69.076 286.039 66.985 286.039 63.541C286.039 60.097 283.866 58.006 279.602 58.006H274.067V69.076H279.356ZM270.172 84V54.726H280.012C285.834 54.726 289.934 58.457 289.934 63.541C289.934 68.625 285.588 72.356 279.766 72.356H274.067V84H270.172ZM291.801 69.199C292.252 66.124 294.835 62.27 300.37 62.27C308.16 62.27 308.898 67.313 308.898 70.593V79.695C308.898 81.294 309.062 82.975 309.226 84H305.29C305.208 82.975 305.208 82.114 305.208 80.925V80.105H305.167C304.675 81.745 302.912 84.492 298.197 84.492C293.113 84.492 290.776 81.253 290.776 78.219C290.776 72.233 298.32 72.028 301.518 71.454C304.306 70.962 305.208 70.183 305.208 68.42C305.208 66.657 303.527 65.386 300.493 65.386C297.91 65.386 295.983 66.903 295.491 69.199H291.801ZM294.425 78.219C294.425 80.228 296.27 81.499 298.853 81.499C302.092 81.499 305.29 79.408 305.29 74.16L305.249 71.208C304.839 72.602 303.937 73.832 299.345 74.652C296.27 75.185 294.425 76.087 294.425 78.219ZM314.243 62.803L320.967 80.351H321.008L327.035 62.803H330.971L321.377 88.1C320.434 90.642 318.876 92.2 316.006 92.2H313.136V89.084H315.473C317.523 89.084 317.851 87.936 318.466 86.419L319.204 84.574C316.252 77.317 313.259 70.06 310.307 62.803H314.243Z" fill="#1C1B17"/>
<path d="M197.699 127.939C197.863 132.326 200.856 134.417 205.12 134.417C208.564 134.417 211.516 132.818 211.516 129.251C211.516 125.643 208.482 125.028 204.792 123.921C199.954 122.486 195.034 121.051 194.911 115.516C194.788 109.858 199.462 107.029 204.751 107.029C210.614 107.029 214.468 109.981 214.919 115.844H210.983C210.45 112.154 208.605 110.309 204.751 110.309C201.512 110.309 198.806 111.662 198.806 115.229C198.806 118.222 201.676 119.37 205.53 120.477C210.409 121.871 215.411 122.937 215.411 129.128C215.411 135.114 210.368 137.697 205.12 137.697C198.724 137.697 193.886 134.622 193.804 127.939H197.699ZM228.416 137.492C221.979 137.492 217.797 132.654 217.797 126.422C217.797 120.19 221.979 115.311 228.416 115.311C234.853 115.311 239.035 120.19 239.035 126.422C239.035 132.654 234.853 137.492 228.416 137.492ZM221.487 126.422C221.487 130.768 224.275 134.376 228.416 134.376C232.557 134.376 235.345 130.768 235.345 126.422C235.345 122.035 232.557 118.427 228.416 118.427C224.275 118.427 221.487 122.035 221.487 126.422ZM243.669 113.425C243.669 110.473 245.268 107.726 249.04 107.726H251.336V110.842H249.983C248.384 110.842 247.277 111.375 247.277 113.589V115.803H250.844V118.837H247.277V137H243.669V118.837H240.758V115.803H243.669V113.425ZM258.934 131.055C258.934 132.941 260 133.966 261.64 133.966H263.116V137H261.271C257.171 137 255.326 134.581 255.326 131.301V118.837H252.169V115.803H255.326V110.842L258.934 109.202V115.803H262.993V118.837H258.934V131.055ZM269.909 137L263.841 115.803H267.695L271.098 128.841C271.426 130.153 271.672 131.465 272 132.777H272.041C272.369 131.506 272.615 130.153 272.943 128.882L276.428 115.803H281.266L284.71 128.841L285.694 132.818H285.735L286.678 128.841L290.04 115.803H293.894L287.785 137H283.562L279.79 123.101L278.847 119.493H278.806C278.478 120.723 278.232 121.871 277.904 123.101L274.132 137H269.909ZM295.505 122.199C295.956 119.124 298.539 115.27 304.074 115.27C311.864 115.27 312.602 120.313 312.602 123.593V132.695C312.602 134.294 312.766 135.975 312.93 137H308.994C308.912 135.975 308.912 135.114 308.912 133.925V133.105H308.871C308.379 134.745 306.616 137.492 301.901 137.492C296.817 137.492 294.48 134.253 294.48 131.219C294.48 125.233 302.024 125.028 305.222 124.454C308.01 123.962 308.912 123.183 308.912 121.42C308.912 119.657 307.231 118.386 304.197 118.386C301.614 118.386 299.687 119.903 299.195 122.199H295.505ZM298.129 131.219C298.129 133.228 299.974 134.499 302.557 134.499C305.796 134.499 308.994 132.408 308.994 127.16L308.953 124.208C308.543 125.602 307.641 126.832 303.049 127.652C299.974 128.185 298.129 129.087 298.129 131.219ZM320.638 115.803V120.067C321.704 116.951 323.754 115.721 326.952 115.721V119.247C326.788 119.247 326.132 119.288 325.599 119.37C323.139 119.739 320.638 120.846 320.638 126.996V137H316.948V115.803H320.638ZM348.074 130.686C346.885 135.196 343.318 137.492 338.603 137.492C332.33 137.492 328.189 132.941 328.189 126.299C328.189 119.903 332.535 115.311 338.521 115.311C345.983 115.311 348.32 121.297 348.402 126.75V127.406H331.756C332.043 131.834 334.749 134.417 338.521 134.417C341.35 134.417 343.728 133.31 344.466 130.686H348.074ZM331.797 124.454H344.671C344.343 120.764 342.293 118.345 338.521 118.345C334.708 118.345 332.289 120.805 331.797 124.454Z" fill="#5683D2"/>
<path d="M482.947 76.142H486.719V80.652C491.475 81.267 494.509 84.178 494.919 89.344H490.983C490.45 85.654 488.605 83.809 484.751 83.809C481.512 83.809 478.806 85.162 478.806 88.729C478.806 91.722 481.676 92.87 485.53 93.977C490.409 95.371 495.411 96.437 495.411 102.628C495.411 107.999 491.352 110.623 486.719 111.115V115.666H482.947V111.074C477.658 110.418 473.886 107.343 473.804 101.439H477.699C477.863 105.826 480.856 107.917 485.12 107.917C488.564 107.917 491.516 106.318 491.516 102.751C491.516 99.143 488.482 98.528 484.792 97.421C479.954 95.986 475.034 94.551 474.911 89.016C474.788 84.014 478.437 81.226 482.947 80.652V76.142ZM516.329 84.342H504.398L503.086 93.034C504.48 91.681 506.735 90.943 509.113 90.943C514.976 90.943 518.871 94.633 518.871 100.988C518.871 106.441 514.853 110.992 508.621 110.992C503.537 110.992 498.986 107.835 498.617 102.669H502.307C502.717 105.539 505.3 107.876 508.621 107.876C511.983 107.876 515.181 105.498 515.181 100.988C515.181 96.929 513.131 94.141 508.457 94.141C505.833 94.141 503.988 95.658 503.045 97.38L499.232 96.929L501.487 81.226H516.329V84.342ZM521.092 90.943C521.092 85.203 525.684 80.98 531.465 80.98C534.54 80.98 537.369 82.128 539.214 84.178C541.346 86.556 541.879 90.369 541.879 95.494C541.879 103.899 538.927 110.992 531.711 110.992C526.217 110.992 522.65 107.794 521.871 103.735H525.561C526.135 105.703 527.693 107.876 531.465 107.876C535.975 107.876 537.697 103.94 538.107 97.954C536.836 99.553 534.294 101.029 531.055 101.029C525.315 101.029 521.092 96.724 521.092 90.943ZM524.782 90.943C524.782 94.674 527.611 97.831 531.465 97.831C535.36 97.831 538.148 94.469 538.148 90.943C538.148 87.048 535.196 84.096 531.465 84.096C527.734 84.096 524.782 87.212 524.782 90.943ZM544.656 90.943C544.656 85.203 549.248 80.98 555.029 80.98C558.104 80.98 560.933 82.128 562.778 84.178C564.91 86.556 565.443 90.369 565.443 95.494C565.443 103.899 562.491 110.992 555.275 110.992C549.781 110.992 546.214 107.794 545.435 103.735H549.125C549.699 105.703 551.257 107.876 555.029 107.876C559.539 107.876 561.261 103.94 561.671 97.954C560.4 99.553 557.858 101.029 554.619 101.029C548.879 101.029 544.656 96.724 544.656 90.943ZM548.346 90.943C548.346 94.674 551.175 97.831 555.029 97.831C558.924 97.831 561.712 94.469 561.712 90.943C561.712 87.048 558.76 84.096 555.029 84.096C551.298 84.096 548.346 87.212 548.346 90.943Z" fill="#757267"/>
</svg>
