<svg width="608" height="400" viewBox="0 0 608 400" fill="none" xmlns="http://www.w3.org/2000/svg">
<rect width="608" height="192" rx="24" fill="#FDFDFC"/>
<rect x="32" y="32" width="128" height="128" rx="8" fill="#E4EBF6"/>
<g clip-path="url(#clip0_3364_49724)">
<path d="M71.5364 117.408H80.546V95.3704L67.6719 85.634V113.515C67.6719 115.671 69.4061 117.407 71.5364 117.407V117.408Z" fill="#4285F4"/>
<path d="M111.469 117.408H120.478C122.609 117.408 124.343 115.661 124.343 113.516V85.634L111.469 95.357V117.407V117.408Z" fill="#34A853"/>
<path d="M111.469 78.4998V95.3557L124.343 85.6327V80.4402C124.343 75.6355 118.892 72.8849 115.073 75.7726L111.47 78.4998H111.469Z" fill="#FBBC04"/>
<path d="M80.5469 95.3683V78.5001L96.004 90.1758L111.461 78.5001V95.3683L96.004 107.032L80.5469 95.3683Z" fill="#EA4335"/>
<path d="M67.6719 80.4506V85.6431L80.546 95.3661V78.4991L76.9426 75.783C73.1223 72.8964 67.6719 75.6459 67.6719 80.4506Z" fill="#C5221F"/>
</g>
<path d="M188.64 73.864C188.768 77.192 191.04 78.824 194.272 78.824C196.928 78.824 199.136 77.608 199.136 74.92C199.136 72.2 196.832 71.688 193.92 70.824C190.144 69.704 186.336 68.552 186.24 64.2C186.144 59.784 189.856 57.608 194.016 57.608C198.592 57.608 201.632 59.88 202.016 64.552H198.752C198.336 61.736 196.896 60.328 193.984 60.328C191.52 60.328 189.472 61.352 189.472 64.04C189.472 66.28 191.648 67.176 194.656 68.04C198.464 69.128 202.368 69.992 202.368 74.856C202.368 79.528 198.4 81.544 194.272 81.544C189.28 81.544 185.472 79.112 185.376 73.864H188.64ZM209.315 76.104C209.315 77.64 210.083 78.504 211.427 78.504H212.579V81H211.043C207.683 81.032 206.307 79.048 206.307 76.36V66.952H203.811V64.456H206.307V60.616L209.315 59.24V64.456H212.515V66.952H209.315V76.104ZM215.188 69.448C215.572 67.016 217.62 64.008 221.94 64.008C227.86 64.008 228.66 67.784 228.66 70.6V77.512C228.66 78.792 228.788 80.168 228.948 81H225.684C225.62 80.232 225.62 79.592 225.62 78.728V78.056H225.588C225.14 79.336 223.764 81.384 220.18 81.384C216.276 81.384 214.388 78.92 214.388 76.488C214.388 71.848 220.212 71.624 222.676 71.208C224.852 70.824 225.588 70.248 225.588 68.872C225.588 67.528 224.308 66.568 222.036 66.568C220.084 66.568 218.612 67.72 218.228 69.448H215.188ZM217.46 76.456C217.46 77.96 218.804 78.952 220.788 78.952C223.252 78.952 225.652 77.384 225.652 73.32V71.176C225.332 72.232 224.564 73.16 221.172 73.736C218.804 74.152 217.46 74.856 217.46 76.456ZM241.042 64.072C245.682 64.072 248.626 67.528 248.626 72.68C248.626 77.832 245.682 81.384 241.042 81.384C238.066 81.384 236.082 79.432 235.474 77.832H235.442V87.4H232.306V64.456H235.41V67.72H235.442C236.05 66.056 238.066 64.072 241.042 64.072ZM235.282 72.68C235.282 75.88 236.914 78.792 240.434 78.792C243.826 78.792 245.554 76.168 245.554 72.68C245.554 69.192 243.73 66.632 240.434 66.632C236.946 66.632 235.282 69.512 235.282 72.68ZM251.361 58.152H254.465V81H251.361V58.152ZM272.822 76.072C271.862 79.56 269.078 81.416 265.334 81.416C260.438 81.416 257.142 77.864 257.142 72.648C257.142 67.656 260.566 64.04 265.302 64.04C271.062 64.04 273.014 68.648 273.078 73V73.576H260.118C260.374 76.904 262.422 78.856 265.27 78.856C267.414 78.856 269.206 78.024 269.782 76.072H272.822ZM260.15 71.176H269.974C269.718 68.424 268.182 66.536 265.27 66.536C262.39 66.536 260.566 68.424 260.15 71.176ZM284.997 69.448C284.805 67.368 283.109 66.6 281.477 66.6C279.941 66.6 278.437 67.464 278.437 68.808C278.437 70.056 279.653 70.76 281.157 71.144L283.333 71.688C285.893 72.328 288.293 73.544 288.293 76.264C288.293 79.72 284.741 81.416 281.669 81.416C278.757 81.416 275.205 80.072 274.885 75.976H277.957C278.341 78.024 279.621 78.856 281.765 78.856C283.397 78.856 285.221 78.28 285.221 76.456C285.221 75.048 283.877 74.6 282.373 74.216L280.037 73.64C277.541 73 275.397 71.496 275.397 68.936C275.397 65.864 278.533 64.04 281.541 64.04C284.869 64.04 287.685 65.8 288.005 69.448H284.997Z" fill="#757267"/>
<path d="M187.116 134V104.726H197.612C204.295 104.726 207.534 108.457 207.534 113.049C207.534 117.231 204.705 119.896 201.425 120.675C204.254 121.413 205.115 123.627 206.222 127.317C207.042 130.023 207.657 131.663 208.764 133.59V134H204.623C203.639 131.991 202.901 129.285 202.04 126.989C201.015 124.242 199.826 122.028 196.3 122.028H191.011V134H187.116ZM191.011 118.748H197.448C201.589 118.748 203.598 116.493 203.598 113.049C203.598 110.425 202.163 108.006 197.202 108.006H191.011V118.748ZM229.722 127.686C228.533 132.196 224.966 134.492 220.251 134.492C213.978 134.492 209.837 129.941 209.837 123.299C209.837 116.903 214.183 112.311 220.169 112.311C227.631 112.311 229.968 118.297 230.05 123.75V124.406H213.404C213.691 128.834 216.397 131.417 220.169 131.417C222.998 131.417 225.376 130.31 226.114 127.686H229.722ZM213.445 121.454H226.319C225.991 117.764 223.941 115.345 220.169 115.345C216.356 115.345 213.937 117.805 213.445 121.454ZM252.253 127.522C251.064 131.95 247.989 134.492 242.864 134.492C236.263 134.492 231.999 129.818 231.999 123.422C231.999 117.026 236.263 112.311 242.864 112.311C248.276 112.311 251.187 115.304 252.089 119.158H248.399C247.62 117.231 246.185 115.345 242.741 115.345C238.436 115.345 235.689 118.871 235.689 123.422C235.689 127.932 238.436 131.417 242.741 131.417C245.816 131.417 247.579 130.023 248.522 127.522H252.253ZM274.207 127.686C273.018 132.196 269.451 134.492 264.736 134.492C258.463 134.492 254.322 129.941 254.322 123.299C254.322 116.903 258.668 112.311 264.654 112.311C272.116 112.311 274.453 118.297 274.535 123.75V124.406H257.889C258.176 128.834 260.882 131.417 264.654 131.417C267.483 131.417 269.861 130.31 270.599 127.686H274.207ZM257.93 121.454H270.804C270.476 117.764 268.426 115.345 264.654 115.345C260.841 115.345 258.422 117.805 257.93 121.454ZM281.814 108.826H277.878V104.726H281.814V108.826ZM277.796 134V112.803H281.486V134H277.796ZM297.254 112.311C303.24 112.311 306.93 116.78 306.93 123.34C306.93 129.9 303.24 134.492 297.254 134.492C293.4 134.492 290.735 131.95 289.956 129.777H289.915V142.2H286.225V112.803H289.915V117.108H289.956C290.735 114.894 293.4 112.311 297.254 112.311ZM289.792 123.34C289.792 127.522 291.924 131.335 296.516 131.335C300.985 131.335 303.24 127.932 303.24 123.34C303.24 118.748 300.862 115.427 296.516 115.427C291.924 115.427 289.792 119.199 289.792 123.34ZM314.498 128.055C314.498 129.941 315.564 130.966 317.204 130.966H318.68V134H316.835C312.735 134 310.89 131.581 310.89 128.301V115.837H307.733V112.803H310.89V107.842L314.498 106.202V112.803H318.557V115.837H314.498V128.055ZM348.623 127.686C347.434 132.196 343.867 134.492 339.152 134.492C332.879 134.492 328.738 129.941 328.738 123.299C328.738 116.903 333.084 112.311 339.07 112.311C346.532 112.311 348.869 118.297 348.951 123.75V124.406H332.305C332.592 128.834 335.298 131.417 339.07 131.417C341.899 131.417 344.277 130.31 345.015 127.686H348.623ZM332.346 121.454H345.22C344.892 117.764 342.842 115.345 339.07 115.345C335.257 115.345 332.838 117.805 332.346 121.454ZM352.213 134V112.803H355.903V116.78C357.01 114.361 358.978 112.311 362.258 112.311C367.834 112.311 369.925 115.96 369.925 120.265V134H366.235V120.634C366.235 116.903 364.636 115.427 361.766 115.427C358.65 115.427 355.903 118.051 355.903 123.586V134H352.213ZM382.539 112.311C386.393 112.311 389.058 114.894 389.837 117.108H389.878V104.726H393.568V134H389.878V129.777H389.837C389.058 131.95 386.393 134.492 382.539 134.492C376.553 134.492 372.863 129.9 372.863 123.34C372.863 116.78 376.553 112.311 382.539 112.311ZM376.553 123.34C376.553 127.932 378.808 131.335 383.277 131.335C387.869 131.335 390.001 127.522 390.001 123.34C390.001 119.199 387.869 115.427 383.277 115.427C378.931 115.427 376.553 118.748 376.553 123.34ZM401.997 108.826H398.061V104.726H401.997V108.826ZM397.979 134V112.803H401.669V134H397.979ZM406.408 134V112.803H410.098V116.78C411.205 114.361 413.173 112.311 416.453 112.311C422.029 112.311 424.12 115.96 424.12 120.265V134H420.43V120.634C420.43 116.903 418.831 115.427 415.961 115.427C412.845 115.427 410.098 118.051 410.098 123.586V134H406.408ZM444.073 112.803H447.763V132.36C447.763 138.633 443.171 142.118 437.923 142.118C432.675 142.118 428.575 139.494 428.124 134.902H431.814C432.224 137.936 434.561 139.002 437.923 139.002C441.285 139.002 444.073 137.157 444.073 132.36V129.818H444.032C443.13 132.442 441.039 134.492 436.898 134.492C430.83 134.492 427.058 129.695 427.058 123.34C427.058 117.026 430.83 112.311 436.898 112.311C441.039 112.311 443.253 114.648 444.032 116.739H444.073V112.803ZM430.748 123.34C430.748 127.522 432.839 131.335 437.472 131.335C442.679 131.335 444.196 126.702 444.196 123.34C444.196 120.019 442.023 115.427 437.472 115.427C432.962 115.427 430.748 119.199 430.748 123.34ZM464.541 108.826H460.605V104.726H464.541V108.826ZM460.523 134V112.803H464.213V134H460.523ZM468.952 134V112.803H472.642V116.78C473.749 114.361 475.717 112.311 478.997 112.311C484.573 112.311 486.664 115.96 486.664 120.265V134H482.974V120.634C482.974 116.903 481.375 115.427 478.505 115.427C475.389 115.427 472.642 118.051 472.642 123.586V134H468.952ZM490.75 129.08H495.26V134H490.75V129.08ZM499.36 134V129.08H503.87V134H499.36ZM507.97 134V129.08H512.48V134H507.97Z" fill="#1C1B17" fill-opacity="0.9"/>
<defs>
<clipPath id="clip0_3364_49724">
<rect width="56.6626" height="42.8117" fill="white" transform="translate(67.6719 74.5942)"/>
</clipPath>
</defs>
</svg>
