<svg width="608" height="608" viewBox="0 0 608 608" fill="none" xmlns="http://www.w3.org/2000/svg">
<g clip-path="url(#clip0_3154_48816)">
<rect x="104" y="40" width="400" height="526.316" rx="24" fill="#FDFDFC"/>
<line x1="131.738" y1="114.977" x2="477.959" y2="114.977" stroke="#DCDBD6" stroke-width="0.866809"/>
<path d="M131.738 143.148H189.686" stroke="#EFEEEB" stroke-width="5.2768"/>
<path d="M131.738 157.017H210.985" stroke="#EFEEEB" stroke-width="5.2768"/>
<path d="M422.607 143.148H470.747" stroke="#EFEEEB" stroke-width="5.2768"/>
<path d="M422.607 157.017H477.959" stroke="#EFEEEB" stroke-width="5.2768"/>
<path d="M422.607 170.886H462.281" stroke="#EFEEEB" stroke-width="5.2768"/>
<path d="M134.138 255.269H137.402V278.117H134.138V255.269ZM141.497 278.117V261.573H144.569V264.645C145.465 262.725 146.969 261.189 149.529 261.189C153.881 261.189 155.513 264.005 155.513 267.493V278.117H152.441V267.909C152.441 265.061 151.289 263.813 149.017 263.813C146.649 263.813 144.601 265.829 144.601 270.117V278.117H141.497ZM159.964 261.573C161.5 266.053 163.004 270.501 164.508 275.013H164.54C165.98 270.693 167.548 266.021 169.02 261.573H172.348L166.204 278.117H162.78L156.636 261.573H159.964ZM181.247 278.533C176.255 278.533 172.895 274.789 172.895 269.861C172.895 264.901 176.255 261.189 181.247 261.189C186.239 261.189 189.599 264.901 189.599 269.861C189.599 274.789 186.239 278.533 181.247 278.533ZM175.967 269.861C175.967 273.189 178.111 275.941 181.247 275.941C184.415 275.941 186.527 273.189 186.527 269.861C186.527 266.501 184.415 263.749 181.247 263.749C178.111 263.749 175.967 266.501 175.967 269.861ZM195.678 258.565H192.382V255.269H195.678V258.565ZM192.318 278.117V261.573H195.422V278.117H192.318ZM214.316 272.965C213.452 276.517 210.924 278.533 206.924 278.533C201.836 278.533 198.38 274.917 198.38 269.861C198.38 264.805 201.836 261.189 206.924 261.189C211.116 261.189 213.516 263.493 214.22 266.597H211.148C210.572 265.061 209.42 263.685 206.86 263.685C203.564 263.685 201.484 266.373 201.484 269.861C201.484 273.317 203.564 275.973 206.86 275.973C209.164 275.973 210.54 274.917 211.244 272.965H214.316ZM231.897 273.189C230.937 276.677 228.153 278.533 224.409 278.533C219.513 278.533 216.217 274.981 216.217 269.765C216.217 264.773 219.641 261.157 224.377 261.157C230.137 261.157 232.089 265.765 232.153 270.117V270.693H219.193C219.449 274.021 221.497 275.973 224.345 275.973C226.489 275.973 228.281 275.141 228.857 273.189H231.897ZM219.225 268.293H229.049C228.793 265.541 227.257 263.653 224.345 263.653C221.465 263.653 219.641 265.541 219.225 268.293ZM245.563 273.221C245.563 274.757 246.331 275.621 247.675 275.621H248.827V278.117H247.291C243.931 278.149 242.555 276.165 242.555 273.477V264.069H240.059V261.573H242.555V257.733L245.563 256.357V261.573H248.763V264.069H245.563V273.221ZM258.734 278.533C253.742 278.533 250.382 274.789 250.382 269.861C250.382 264.901 253.742 261.189 258.734 261.189C263.726 261.189 267.086 264.901 267.086 269.861C267.086 274.789 263.726 278.533 258.734 278.533ZM253.454 269.861C253.454 273.189 255.598 275.941 258.734 275.941C261.902 275.941 264.014 273.189 264.014 269.861C264.014 266.501 261.902 263.749 258.734 263.749C255.598 263.749 253.454 266.501 253.454 269.861ZM273.58 273.221C273.58 274.757 274.348 275.621 275.692 275.621H276.844V278.117H275.308C271.948 278.149 270.572 276.165 270.572 273.477V264.069H268.076V261.573H270.572V257.733L273.58 256.357V261.573H276.78V264.069H273.58V273.221ZM279.452 266.565C279.836 264.133 281.884 261.125 286.204 261.125C292.124 261.125 292.924 264.901 292.924 267.717V274.629C292.924 275.909 293.052 277.285 293.212 278.117H289.948C289.884 277.349 289.884 276.709 289.884 275.845V275.173H289.852C289.404 276.453 288.028 278.501 284.444 278.501C280.54 278.501 278.652 276.037 278.652 273.605C278.652 268.965 284.476 268.741 286.94 268.325C289.116 267.941 289.852 267.365 289.852 265.989C289.852 264.645 288.572 263.685 286.3 263.685C284.348 263.685 282.876 264.837 282.492 266.565H279.452ZM281.724 273.573C281.724 275.077 283.068 276.069 285.052 276.069C287.516 276.069 289.916 274.501 289.916 270.437V268.293C289.596 269.349 288.828 270.277 285.436 270.853C283.068 271.269 281.724 271.973 281.724 273.573ZM296.571 255.269H299.675V278.117H296.571V255.269Z" fill="#757267"/>
<path d="M387.337 251.845H390V254.924C393.19 255.34 395.27 257.281 395.575 260.86H392.746C392.386 258.419 391.137 257.198 388.613 257.198C386.477 257.198 384.702 258.086 384.702 260.416C384.702 262.358 386.588 263.134 389.196 263.883C392.497 264.826 395.881 265.575 395.881 269.791C395.881 273.397 393.134 275.2 390 275.533V278.64H387.337V275.505C383.787 275.034 381.235 272.926 381.152 268.931H383.981C384.092 271.816 386.061 273.231 388.863 273.231C391.165 273.231 393.079 272.177 393.079 269.847C393.079 267.489 391.082 267.045 388.558 266.296C385.285 265.325 381.984 264.327 381.901 260.555C381.817 257.198 384.286 255.34 387.337 254.924V251.845ZM398.303 261.636C398.303 257.42 400.828 255.173 404.961 255.173C408.677 255.173 411.202 257.392 411.202 260.943C411.202 264.382 409.565 265.631 407.263 267.406C404.933 269.209 402.325 270.596 401.521 272.87H411.396V275.117H398.026C398.276 270.762 401.05 268.571 403.851 266.685C407.013 264.604 408.539 263.467 408.539 261.082C408.539 259.112 407.235 257.42 404.822 257.42C402.187 257.42 400.994 259.334 400.966 261.636H398.303ZM426.013 257.698C422.047 261.609 418.857 268.987 418.496 275.117H415.833C416.305 267.877 419.523 261.664 422.851 257.559H413.171V255.312H426.013V257.698ZM423.682 271.733H426.649L424.597 278.501H422.211L423.682 271.733ZM435.902 273.203C439.092 273.203 440.368 268.931 440.368 265.215C440.368 261.525 439.092 257.42 435.902 257.42C432.713 257.42 431.437 261.525 431.437 265.215C431.437 268.931 432.713 273.203 435.902 273.203ZM428.774 265.215C428.774 260.166 430.604 255.201 435.902 255.201C441.2 255.201 443.031 260.166 443.031 265.215C443.031 270.263 441.2 275.45 435.902 275.45C430.604 275.45 428.774 270.291 428.774 265.215ZM452.311 273.203C455.501 273.203 456.777 268.931 456.777 265.215C456.777 261.525 455.501 257.42 452.311 257.42C449.121 257.42 447.845 261.525 447.845 265.215C447.845 268.931 449.121 273.203 452.311 273.203ZM445.182 265.215C445.182 260.166 447.013 255.201 452.311 255.201C457.609 255.201 459.44 260.166 459.44 265.215C459.44 270.263 457.609 275.45 452.311 275.45C447.013 275.45 445.182 270.291 445.182 265.215ZM468.72 273.203C471.91 273.203 473.186 268.931 473.186 265.215C473.186 261.525 471.91 257.42 468.72 257.42C465.53 257.42 464.254 261.525 464.254 265.215C464.254 268.931 465.53 273.203 468.72 273.203ZM461.591 265.215C461.591 260.166 463.422 255.201 468.72 255.201C474.018 255.201 475.848 260.166 475.848 265.215C475.848 270.263 474.018 275.45 468.72 275.45C463.422 275.45 461.591 270.291 461.591 265.215Z" fill="#1C1B17" fill-opacity="0.9"/>
<rect x="131.215" y="348.044" width="346.22" height="63.3216" rx="10.5536" fill="#EFEEEB"/>
<path d="M157.599 379.704H228.781" stroke="#DCDBD6" stroke-width="5.2768"/>
<path d="M341.967 379.704L451.052 379.704" stroke="#DCDBD6" stroke-width="5.2768"/>
<rect x="131.738" y="421.901" width="346.22" height="110" rx="10.5536" fill="#EFEEEB"/>
<path d="M158.122 453.562L271.631 453.562" stroke="#DCDBD6" stroke-width="5.2768"/>
<path d="M158.122 479.946H451.574" stroke="#DCDBD6" stroke-width="5.2768"/>
<path d="M158.122 506.33H451.574" stroke="#DCDBD6" stroke-width="5.2768"/>
<g filter="url(#filter0_b_3154_48816)">
<rect width="264.001" height="88.0006" rx="16" fill="#E4EBF6"/>
<mask id="mask0_3154_48816" style="mask-type:alpha" maskUnits="userSpaceOnUse" x="24" y="24" width="41" height="41">
<rect x="24" y="24" width="40.0005" height="40.0006" fill="#D9D9D9"/>
</mask>
<g mask="url(#mask0_3154_48816)">
<path d="M41.5645 51.778L53.4654 39.8772L51.1872 37.6169L41.5645 47.2396L36.7474 42.4225L34.4971 44.6828L41.5645 51.778ZM44.0054 60.9466C41.6734 60.9466 39.477 60.5028 37.4161 59.615C35.3551 58.7273 33.5575 57.5163 32.0232 55.982C30.489 54.4477 29.278 52.6504 28.3902 50.5901C27.5025 48.5298 27.0586 46.3336 27.0586 44.0017C27.0586 41.6512 27.5025 39.4455 28.3902 37.3845C29.278 35.3236 30.4886 33.5305 32.0222 32.0052C33.5558 30.48 35.3529 29.2725 37.4135 28.3828C39.4742 27.4931 41.6707 27.0482 44.003 27.0482C46.3539 27.0482 48.56 27.4929 50.6215 28.3823C52.6829 29.2717 54.4761 30.4787 56.001 32.0034C57.526 33.528 58.7332 35.3209 59.6227 37.382C60.5122 39.4431 60.957 41.6494 60.957 44.0007C60.957 46.3333 60.5121 48.5301 59.6224 50.5909C58.7327 52.6518 57.5252 54.4491 56 55.9828C54.4747 57.5165 52.6819 58.7273 50.6216 59.615C48.5613 60.5028 46.3559 60.9466 44.0054 60.9466Z" fill="#5683D2"/>
</g>
<path d="M91.117 58.5002V29.2262H101.613C108.296 29.2262 111.535 32.9572 111.535 37.5492C111.535 41.7312 108.706 44.3962 105.426 45.1752C108.255 45.9132 109.116 48.1272 110.223 51.8172C111.043 54.5232 111.658 56.1632 112.765 58.0902V58.5002H108.624C107.64 56.4912 106.902 53.7852 106.041 51.4892C105.016 48.7422 103.827 46.5282 100.301 46.5282H95.012V58.5002H91.117ZM95.012 43.2482H101.449C105.59 43.2482 107.599 40.9932 107.599 37.5492C107.599 34.9252 106.164 32.5062 101.203 32.5062H95.012V43.2482ZM116.027 53.5802H120.537V58.5002H116.027V53.5802ZM144.037 29.2262V32.5062H129.687V41.9772H143.176V45.2572H129.687V55.2202H144.16V58.5002H125.792V29.2262H144.037ZM159.548 43.6992C159.302 40.9522 157.006 39.9272 154.874 39.9272C152.865 39.9272 150.856 41.0752 150.856 42.8792C150.856 44.5192 152.496 45.4622 154.341 45.9132L157.129 46.6102C160.327 47.3892 163.566 48.9062 163.566 52.4322C163.566 56.9422 158.851 58.9922 155.161 58.9922C151.594 58.9922 146.92 57.3522 146.551 52.1042H150.241C150.733 54.8102 152.414 55.8762 155.284 55.8762C157.375 55.8762 159.876 55.1382 159.876 52.6782C159.876 50.8742 158.113 50.2592 156.104 49.7672L153.152 49.0292C149.995 48.2502 147.166 46.3232 147.166 43.0432C147.166 39.0662 151.266 36.8112 154.997 36.8112C159.138 36.8112 162.787 39.0252 163.197 43.6992H159.548ZM171.131 52.5552C171.131 54.4412 172.197 55.4662 173.837 55.4662H175.313V58.5002H173.468C169.368 58.5002 167.523 56.0812 167.523 52.8012V40.3372H164.366V37.3032H167.523V32.3422L171.131 30.7022V37.3032H175.19V40.3372H171.131V52.5552ZM178.294 43.6992C178.745 40.6242 181.328 36.7702 186.863 36.7702C194.653 36.7702 195.391 41.8132 195.391 45.0932V54.1952C195.391 55.7942 195.555 57.4752 195.719 58.5002H191.783C191.701 57.4752 191.701 56.6142 191.701 55.4252V54.6052H191.66C191.168 56.2452 189.405 58.9922 184.69 58.9922C179.606 58.9922 177.269 55.7532 177.269 52.7192C177.269 46.7332 184.813 46.5282 188.011 45.9542C190.799 45.4622 191.701 44.6832 191.701 42.9202C191.701 41.1572 190.02 39.8862 186.986 39.8862C184.403 39.8862 182.476 41.4032 181.984 43.6992H178.294ZM180.918 52.7192C180.918 54.7282 182.763 55.9992 185.346 55.9992C188.585 55.9992 191.783 53.9082 191.783 48.6602L191.742 45.7082C191.332 47.1022 190.43 48.3322 185.838 49.1522C182.763 49.6852 180.918 50.5872 180.918 52.7192ZM204.205 52.5552C204.205 54.4412 205.271 55.4662 206.911 55.4662H208.387V58.5002H206.542C202.442 58.5002 200.597 56.0812 200.597 52.8012V40.3372H197.44V37.3032H200.597V32.3422L204.205 30.7022V37.3032H208.264V40.3372H204.205V52.5552ZM229.901 52.1862C228.712 56.6962 225.145 58.9922 220.43 58.9922C214.157 58.9922 210.016 54.4412 210.016 47.7992C210.016 41.4032 214.362 36.8112 220.348 36.8112C227.81 36.8112 230.147 42.7972 230.229 48.2502V48.9062H213.583C213.87 53.3342 216.576 55.9172 220.348 55.9172C223.177 55.9172 225.555 54.8102 226.293 52.1862H229.901ZM213.624 45.9542H226.498C226.17 42.2642 224.12 39.8452 220.348 39.8452C216.535 39.8452 214.116 42.3052 213.624 45.9542Z" fill="#1C1B17" fill-opacity="0.9"/>
</g>
<g filter="url(#filter1_b_3154_48816)">
<rect x="323" y="93" width="285.001" height="88.0006" rx="16" fill="#E4EBF6"/>
<mask id="mask1_3154_48816" style="mask-type:alpha" maskUnits="userSpaceOnUse" x="347" y="117" width="41" height="41">
<rect x="347" y="117" width="40.0005" height="40.0006" fill="#D9D9D9"/>
</mask>
<g mask="url(#mask1_3154_48816)">
<path d="M364.565 144.778L376.465 132.877L374.187 130.617L364.565 140.24L359.747 135.423L357.497 137.683L364.565 144.778ZM367.005 153.947C364.673 153.947 362.477 153.503 360.416 152.615C358.355 151.727 356.558 150.516 355.023 148.982C353.489 147.448 352.278 145.65 351.39 143.59C350.502 141.53 350.059 139.334 350.059 137.002C350.059 134.651 350.502 132.445 351.39 130.385C352.278 128.324 353.489 126.53 355.022 125.005C356.556 123.48 358.353 122.273 360.414 121.383C362.474 120.493 364.671 120.048 367.003 120.048C369.354 120.048 371.56 120.493 373.621 121.382C375.683 122.272 377.476 123.479 379.001 125.003C380.526 126.528 381.733 128.321 382.623 130.382C383.512 132.443 383.957 134.649 383.957 137.001C383.957 139.333 383.512 141.53 382.622 143.591C381.733 145.652 380.525 147.449 379 148.983C377.475 150.517 375.682 151.727 373.622 152.615C371.561 153.503 369.356 153.947 367.005 153.947Z" fill="#5683D2"/>
</g>
<path d="M440.685 142.849C439.537 147.646 434.945 152.033 427.483 152.033C417.848 152.033 412.559 145.104 412.559 136.863C412.559 128.622 417.848 121.693 427.483 121.693C434.822 121.693 438.84 125.629 440.644 130.836H436.749C435.15 127.146 432.444 124.973 427.483 124.973C420.185 124.973 416.454 130.508 416.454 136.863C416.454 143.218 420.144 148.753 427.483 148.753C432.485 148.753 435.601 146.252 436.79 142.849H440.685ZM445.048 122.226H448.943V151.5H445.048V122.226ZM454.358 139.282H467.519V142.398H454.358V139.282ZM480.328 151.5H476.638V129.811H469.668V127.023C473.645 127.023 476.433 126.408 477.294 122.226H480.328V151.5ZM484.592 144.12V141.086L497.63 122.226H500.992V141.004H504.231V144.12H500.992V151.5H497.302V144.12H484.592ZM488.405 141.004H497.302V128.253H497.179L488.405 141.004ZM517.615 121.98C522.904 121.98 526.84 124.809 526.84 129.278C526.84 132.64 524.872 135.223 522.33 136.002C525.036 136.781 527.906 139.487 527.906 143.546C527.906 148.876 523.437 151.992 517.656 151.992C511.67 151.992 507.16 148.876 507.201 143.546C507.242 139.487 510.276 136.74 512.941 135.961C510.071 135.018 508.39 132.681 508.39 129.278C508.39 124.809 512.326 121.98 517.615 121.98ZM510.891 143.259C510.891 146.416 513.269 148.917 517.615 148.917C521.92 148.917 524.216 146.416 524.216 143.218C524.216 140.143 521.92 137.642 517.615 137.642C513.269 137.642 510.891 140.143 510.891 143.259ZM512.121 129.934C512.121 132.476 514.212 134.772 517.615 134.772C521.018 134.772 523.109 132.517 523.109 129.934C523.109 127.351 521.018 125.096 517.615 125.096C514.171 125.096 512.121 127.351 512.121 129.934ZM541.099 121.98C546.388 121.98 550.324 124.809 550.324 129.278C550.324 132.64 548.356 135.223 545.814 136.002C548.52 136.781 551.39 139.487 551.39 143.546C551.39 148.876 546.921 151.992 541.14 151.992C535.154 151.992 530.644 148.876 530.685 143.546C530.726 139.487 533.76 136.74 536.425 135.961C533.555 135.018 531.874 132.681 531.874 129.278C531.874 124.809 535.81 121.98 541.099 121.98ZM534.375 143.259C534.375 146.416 536.753 148.917 541.099 148.917C545.404 148.917 547.7 146.416 547.7 143.218C547.7 140.143 545.404 137.642 541.099 137.642C536.753 137.642 534.375 140.143 534.375 143.259ZM535.605 129.934C535.605 132.476 537.696 134.772 541.099 134.772C544.502 134.772 546.593 132.517 546.593 129.934C546.593 127.351 544.502 125.096 541.099 125.096C537.655 125.096 535.605 127.351 535.605 129.934ZM553.922 144.12V141.086L566.96 122.226H570.322V141.004H573.561V144.12H570.322V151.5H566.632V144.12H553.922ZM557.735 141.004H566.632V128.253H566.509L557.735 141.004Z" fill="#1C1B17" fill-opacity="0.9"/>
</g>
<g filter="url(#filter2_b_3154_48816)">
<rect x="323" y="221" width="260.001" height="88.0006" rx="16" fill="#E4EBF6"/>
<mask id="mask2_3154_48816" style="mask-type:alpha" maskUnits="userSpaceOnUse" x="347" y="245" width="41" height="41">
<rect x="347" y="245" width="40.0005" height="40.0006" fill="#D9D9D9"/>
</mask>
<g mask="url(#mask2_3154_48816)">
<path d="M364.565 272.778L376.465 260.877L374.187 258.617L364.565 268.24L359.747 263.423L357.497 265.683L364.565 272.778ZM367.005 281.947C364.673 281.947 362.477 281.503 360.416 280.615C358.355 279.727 356.558 278.516 355.023 276.982C353.489 275.448 352.278 273.65 351.39 271.59C350.502 269.53 350.059 267.334 350.059 265.002C350.059 262.651 350.502 260.445 351.39 258.385C352.278 256.324 353.489 254.53 355.022 253.005C356.556 251.48 358.353 250.273 360.414 249.383C362.474 248.493 364.671 248.048 367.003 248.048C369.354 248.048 371.56 248.493 373.621 249.382C375.683 250.272 377.476 251.479 379.001 253.003C380.526 254.528 381.733 256.321 382.623 258.382C383.512 260.443 383.957 262.649 383.957 265.001C383.957 267.333 383.512 269.53 382.622 271.591C381.733 273.652 380.525 275.449 379 276.983C377.475 278.517 375.682 279.727 373.622 280.615C371.561 281.503 369.356 281.947 367.005 281.947Z" fill="#5683D2"/>
</g>
<path d="M421.948 245.142H425.72V249.652C430.476 250.267 433.51 253.178 433.92 258.344H429.984C429.451 254.654 427.606 252.809 423.752 252.809C420.513 252.809 417.807 254.162 417.807 257.729C417.807 260.722 420.677 261.87 424.531 262.977C429.41 264.371 434.412 265.437 434.412 271.628C434.412 276.999 430.353 279.623 425.72 280.115V284.666H421.948V280.074C416.659 279.418 412.887 276.343 412.805 270.439H416.7C416.864 274.826 419.857 276.917 424.121 276.917C427.565 276.917 430.517 275.318 430.517 271.751C430.517 268.143 427.483 267.528 423.793 266.421C418.955 264.986 414.035 263.551 413.912 258.016C413.789 253.014 417.438 250.226 421.948 249.652V245.142ZM437.587 259.533C437.587 253.301 441.195 250.062 447.345 250.062C452.798 250.062 456.447 253.26 456.447 258.549C456.447 263.674 453.987 265.437 450.666 268.02C447.222 270.726 443.204 272.858 442.056 276.384H456.734V279.5H437.177C437.587 273.104 441.851 269.742 445.828 267.077C450.42 264.002 452.757 262.239 452.757 258.713C452.757 255.72 450.789 253.178 447.14 253.178C443.081 253.178 441.318 256.13 441.277 259.533H437.587ZM477.851 253.67C471.988 259.451 467.232 270.439 466.699 279.5H463.009C463.706 268.881 468.462 259.574 473.464 253.342H459.032V250.226H477.851V253.67ZM473.998 274.58H478.098L475.146 284.461H471.866L473.998 274.58ZM491.289 276.876C496.086 276.876 498.013 270.357 498.013 264.863C498.013 259.41 496.086 253.178 491.289 253.178C486.492 253.178 484.565 259.41 484.565 264.863C484.565 270.357 486.492 276.876 491.289 276.876ZM480.875 264.863C480.875 257.401 483.581 250.062 491.289 250.062C498.997 250.062 501.703 257.401 501.703 264.863C501.703 272.325 498.997 279.992 491.289 279.992C483.581 279.992 480.875 272.366 480.875 264.863ZM514.892 276.876C519.689 276.876 521.616 270.357 521.616 264.863C521.616 259.41 519.689 253.178 514.892 253.178C510.095 253.178 508.168 259.41 508.168 264.863C508.168 270.357 510.095 276.876 514.892 276.876ZM504.478 264.863C504.478 257.401 507.184 250.062 514.892 250.062C522.6 250.062 525.306 257.401 525.306 264.863C525.306 272.325 522.6 279.992 514.892 279.992C507.184 279.992 504.478 272.366 504.478 264.863ZM538.496 276.876C543.293 276.876 545.22 270.357 545.22 264.863C545.22 259.41 543.293 253.178 538.496 253.178C533.699 253.178 531.772 259.41 531.772 264.863C531.772 270.357 533.699 276.876 538.496 276.876ZM528.082 264.863C528.082 257.401 530.788 250.062 538.496 250.062C546.204 250.062 548.91 257.401 548.91 264.863C548.91 272.325 546.204 279.992 538.496 279.992C530.788 279.992 528.082 272.366 528.082 264.863Z" fill="#1C1B17" fill-opacity="0.9"/>
</g>
</g>
<defs>
<filter id="filter0_b_3154_48816" x="-15.3663" y="-15.3663" width="294.734" height="118.733" filterUnits="userSpaceOnUse" color-interpolation-filters="sRGB">
<feFlood flood-opacity="0" result="BackgroundImageFix"/>
<feGaussianBlur in="BackgroundImageFix" stdDeviation="7.68316"/>
<feComposite in2="SourceAlpha" operator="in" result="effect1_backgroundBlur_3154_48816"/>
<feBlend mode="normal" in="SourceGraphic" in2="effect1_backgroundBlur_3154_48816" result="shape"/>
</filter>
<filter id="filter1_b_3154_48816" x="307.634" y="77.6337" width="315.734" height="118.733" filterUnits="userSpaceOnUse" color-interpolation-filters="sRGB">
<feFlood flood-opacity="0" result="BackgroundImageFix"/>
<feGaussianBlur in="BackgroundImageFix" stdDeviation="7.68316"/>
<feComposite in2="SourceAlpha" operator="in" result="effect1_backgroundBlur_3154_48816"/>
<feBlend mode="normal" in="SourceGraphic" in2="effect1_backgroundBlur_3154_48816" result="shape"/>
</filter>
<filter id="filter2_b_3154_48816" x="307.634" y="205.634" width="290.734" height="118.733" filterUnits="userSpaceOnUse" color-interpolation-filters="sRGB">
<feFlood flood-opacity="0" result="BackgroundImageFix"/>
<feGaussianBlur in="BackgroundImageFix" stdDeviation="7.68316"/>
<feComposite in2="SourceAlpha" operator="in" result="effect1_backgroundBlur_3154_48816"/>
<feBlend mode="normal" in="SourceGraphic" in2="effect1_backgroundBlur_3154_48816" result="shape"/>
</filter>
<clipPath id="clip0_3154_48816">
<rect width="608" height="608" fill="white"/>
</clipPath>
</defs>
</svg>
